<svg xmlns="http://www.w3.org/2000/svg" version="1.1" xmlns:xlink="http://www.w3.org/1999/xlink" xmlns:svgjs="http://svgjs.dev/svgjs" width="1440" height="2240" preserveAspectRatio="none" viewBox="0 0 1440 2240"><g mask="url(&quot;#SvgjsMask3757&quot;)" fill="none"><rect width="1440" height="2240" x="0" y="0" fill="url(&quot;#SvgjsLinearGradient3758&quot;)"></rect><path d="M1266 2214L1265 2886" stroke-width="10" stroke="url(&quot;#SvgjsLinearGradient3759&quot;)" stroke-linecap="round" class="Up"></path><path d="M1323 523L1322 1366" stroke-width="10" stroke="url(&quot;#SvgjsLinearGradient3760&quot;)" stroke-linecap="round" class="Down"></path><path d="M381 1662L380 2410" stroke-width="8" stroke="url(&quot;#SvgjsLinearGradient3759&quot;)" stroke-linecap="round" class="Up"></path><path d="M1344 283L1343 1123" stroke-width="6" stroke="url(&quot;#SvgjsLinearGradient3760&quot;)" stroke-linecap="round" class="Down"></path><path d="M577 2003L576 2634" stroke-width="10" stroke="url(&quot;#SvgjsLinearGradient3760&quot;)" stroke-linecap="round" class="Down"></path><path d="M569 1151L568 -1" stroke-width="6" stroke="url(&quot;#SvgjsLinearGradient3760&quot;)" stroke-linecap="round" class="Down"></path><path d="M1132 360L1131 1145" stroke-width="6" stroke="url(&quot;#SvgjsLinearGradient3760&quot;)" stroke-linecap="round" class="Down"></path><path d="M1093 1278L1092 1971" stroke-width="6" stroke="url(&quot;#SvgjsLinearGradient3759&quot;)" stroke-linecap="round" class="Up"></path><path d="M1236 1783L1235 3456" stroke-width="6" stroke="url(&quot;#SvgjsLinearGradient3760&quot;)" stroke-linecap="round" class="Down"></path><path d="M951 295L950 1181" stroke-width="8" stroke="url(&quot;#SvgjsLinearGradient3759&quot;)" stroke-linecap="round" class="Up"></path><path d="M117 827L116 1722" stroke-width="8" stroke="url(&quot;#SvgjsLinearGradient3759&quot;)" stroke-linecap="round" class="Up"></path><path d="M731 1535L730 668" stroke-width="6" stroke="url(&quot;#SvgjsLinearGradient3760&quot;)" stroke-linecap="round" class="Down"></path><path d="M636 1939L635 3417" stroke-width="6" stroke="url(&quot;#SvgjsLinearGradient3759&quot;)" stroke-linecap="round" class="Up"></path><path d="M1390 319L1389 928" stroke-width="8" stroke="url(&quot;#SvgjsLinearGradient3760&quot;)" stroke-linecap="round" class="Down"></path><path d="M800 137L799 -894" stroke-width="8" stroke="url(&quot;#SvgjsLinearGradient3760&quot;)" stroke-linecap="round" class="Down"></path><path d="M1228 1880L1227 2743" stroke-width="10" stroke="url(&quot;#SvgjsLinearGradient3760&quot;)" stroke-linecap="round" class="Down"></path><path d="M1314 151L1313 1145" stroke-width="10" stroke="url(&quot;#SvgjsLinearGradient3759&quot;)" stroke-linecap="round" class="Up"></path><path d="M1296 852L1295 1591" stroke-width="10" stroke="url(&quot;#SvgjsLinearGradient3759&quot;)" stroke-linecap="round" class="Up"></path><path d="M446 1078L445 2664" stroke-width="8" stroke="url(&quot;#SvgjsLinearGradient3759&quot;)" stroke-linecap="round" class="Up"></path><path d="M229 2080L228 889" stroke-width="10" stroke="url(&quot;#SvgjsLinearGradient3760&quot;)" stroke-linecap="round" class="Down"></path><path d="M1320 2175L1319 1211" stroke-width="6" stroke="url(&quot;#SvgjsLinearGradient3759&quot;)" stroke-linecap="round" class="Up"></path><path d="M1042 739L1041 1884" stroke-width="10" stroke="url(&quot;#SvgjsLinearGradient3759&quot;)" stroke-linecap="round" class="Up"></path><path d="M1378 418L1377 -178" stroke-width="10" stroke="url(&quot;#SvgjsLinearGradient3759&quot;)" stroke-linecap="round" class="Up"></path><path d="M227 1104L226 2093" stroke-width="6" stroke="url(&quot;#SvgjsLinearGradient3759&quot;)" stroke-linecap="round" class="Up"></path><path d="M194 96L193 -483" stroke-width="6" stroke="url(&quot;#SvgjsLinearGradient3760&quot;)" stroke-linecap="round" class="Down"></path><path d="M51 891L50 2533" stroke-width="6" stroke="url(&quot;#SvgjsLinearGradient3759&quot;)" stroke-linecap="round" class="Up"></path><path d="M573 1794L572 437" stroke-width="8" stroke="url(&quot;#SvgjsLinearGradient3760&quot;)" stroke-linecap="round" class="Down"></path><path d="M815 783L814 -691" stroke-width="8" stroke="url(&quot;#SvgjsLinearGradient3759&quot;)" stroke-linecap="round" class="Up"></path><path d="M86 904L85 300" stroke-width="10" stroke="url(&quot;#SvgjsLinearGradient3760&quot;)" stroke-linecap="round" class="Down"></path><path d="M464 60L463 1289" stroke-width="6" stroke="url(&quot;#SvgjsLinearGradient3759&quot;)" stroke-linecap="round" class="Up"></path><path d="M324 1173L323 -290" stroke-width="10" stroke="url(&quot;#SvgjsLinearGradient3760&quot;)" stroke-linecap="round" class="Down"></path><path d="M498 412L497 -983" stroke-width="10" stroke="url(&quot;#SvgjsLinearGradient3760&quot;)" stroke-linecap="round" class="Down"></path><path d="M203 569L202 2092" stroke-width="8" stroke="url(&quot;#SvgjsLinearGradient3759&quot;)" stroke-linecap="round" class="Up"></path><path d="M420 2204L419 2973" stroke-width="10" stroke="url(&quot;#SvgjsLinearGradient3760&quot;)" stroke-linecap="round" class="Down"></path><path d="M1144 1566L1143 689" stroke-width="6" stroke="url(&quot;#SvgjsLinearGradient3759&quot;)" stroke-linecap="round" class="Up"></path><path d="M230 1716L229 695" stroke-width="6" stroke="url(&quot;#SvgjsLinearGradient3759&quot;)" stroke-linecap="round" class="Up"></path></g><defs><mask id="SvgjsMask3757"><rect width="1440" height="2240" fill="#ffffff"></rect></mask><linearGradient x1="-13.89%" y1="8.93%" x2="113.89%" y2="91.07%" gradientUnits="userSpaceOnUse" id="SvgjsLinearGradient3758"><stop stop-color="rgba(14, 42, 71, 1)" offset="0.39"></stop><stop stop-color="rgba(0, 69, 158, 1)" offset="1"></stop></linearGradient><linearGradient x1="0%" y1="100%" x2="0%" y2="0%" id="SvgjsLinearGradient3759"><stop stop-color="rgba(28, 83, 142, 0)" offset="0"></stop><stop stop-color="#1c538e" offset="1"></stop></linearGradient><linearGradient x1="0%" y1="0%" x2="0%" y2="100%" id="SvgjsLinearGradient3760"><stop stop-color="rgba(28, 83, 142, 0)" offset="0"></stop><stop stop-color="#1c538e" offset="1"></stop></linearGradient></defs></svg>